# xmcd
#
# Track frame offsets:
#	150
#	18217
#	38660
#	51480
#	69870
#	88212
#	109860
#	127937
#	144962
#	158097
#	168887
#	182527
#
# Disc length: 2562 seconds
#
# Revision: 9
# Processed by: cddbd v1.5.2PL0 Copyright (c) Steve Scherf et al.
# Submitted via: EasyCDDAExtractor 15.2.5.1
#
DISCID=900a000c
DTITLE=Kasey Chambers - The Captain - Special Bonus Edition - Disc 1
DYEAR=2000
DGENRE=Country
TTITLE0=Cry Like A Baby
TTITLE1=The Captain
TTITLE2=This Flower
TTITLE3=You Got The Car
TTITLE4=These Pines
TTITLE5=Don't Talk Back
TTITLE6=Southern Kind Of Life
TTITLE7=Mr Baylis
TTITLE8=The Hard Way
TTITLE9=Last Hard Bible
TTITLE10=Don't Go
TTITLE11=We're All Gonna Die Someday
EXTD=YEAR: 1999 ID3G: 2\n
EXTT0=
EXTT1=
EXTT2=
EXTT3=
EXTT4=
EXTT5=
EXTT6=
EXTT7=
EXTT8=
EXTT9=
EXTT10=
EXTT11=
PLAYORDER=
